# This file uses centimeters as units for non-parametric coordinates.

mtllib poste.mtl
g default
v -0.032261 -0.002569 0.005057
v 0.026388 -0.002569 0.005327
v -0.032261 1.502900 0.005057
v 0.026388 1.502900 0.005327
v -0.032193 1.502900 -0.006931
v 0.026439 1.502900 -0.006607
v -0.032193 -0.002569 -0.006931
v 0.026439 -0.002569 -0.006607
v -0.009421 2.051730 -0.007570
v 0.009421 2.051730 -0.007570
v -0.009421 1.466392 -0.007570
v 0.009421 1.466392 -0.007570
v 0.000000 2.051730 -0.007570
v 0.000000 1.759061 -0.007570
v 0.292669 1.759061 -0.007570
v 0.000000 1.466392 -0.007570
v -0.292669 1.759061 -0.007570
v -0.014158 1.475777 0.007425
v -0.283245 1.759061 0.007425
v 0.000000 1.475777 0.007425
v 0.014158 1.475777 0.007425
v 0.283245 1.759061 0.007425
v 0.014158 2.042346 0.007425
v 0.000000 2.042346 0.007425
v -0.014158 2.042346 0.007425
v -0.014158 1.475777 0.005689
v -0.283245 1.759061 0.005689
v 0.000000 1.475777 0.005689
v 0.000000 1.759061 0.005689
v 0.014158 1.475777 0.005689
v 0.283245 1.759061 0.005689
v 0.014158 2.042346 0.005689
v 0.000000 2.042346 0.005689
v -0.014158 2.042346 0.005689
v -0.014465 2.063632 0.007425
v 0.000000 2.065770 0.007425
v -0.014465 1.454491 -0.007570
v 0.000000 1.452353 -0.007570
v 0.014465 1.454491 0.007425
v 0.302758 1.759061 0.007425
v -0.302758 1.759061 -0.007570
v 0.014465 2.063632 0.007425
v 0.014465 2.063632 -0.007570
v 0.000000 2.065770 -0.007570
v -0.014465 2.063632 -0.007570
v 0.014465 1.454491 -0.007570
v 0.000000 1.452353 0.007425
v -0.014465 1.454491 0.007425
v 0.302758 1.759061 -0.007570
v -0.302758 1.759061 0.007425
vt -1.837735 -1.777469
vt -1.661565 -1.777469
vt -1.661565 2.744676
vt -1.837735 2.744676
vt 1.403082 0.260180
vt 1.402271 0.084009
vt 1.438120 0.083856
vt 1.439093 0.259977
vt -1.626400 -1.777469
vt -1.450280 -1.777469
vt -1.450280 2.744676
vt -1.626400 2.744676
vt -1.415979 -1.777469
vt -1.380131 -1.777469
vt -1.380131 2.744676
vt -1.415979 2.744676
vt -1.342790 -1.777469
vt -1.306779 -1.777469
vt -1.306779 2.744676
vt -1.342790 2.744676
vt 0.060249 0.476204
vt 0.478018 -0.197869
vt 0.500000 -0.197869
vt 0.500000 0.476204
vt -1.239297 -0.856175
vt -0.388471 -1.735299
vt -0.360173 -1.735299
vt -0.360173 -0.856175
vt 2.471526 -1.777469
vt 2.471526 -0.911492
vt 2.426483 -0.911492
vt 2.426483 -1.777469
vt 2.426483 0.041384
vt 2.426483 -0.824593
vt 2.471526 -0.824593
vt 2.471526 0.041384
vt 0.521982 -0.197869
vt 0.939751 0.476204
vt 0.521982 1.150277
vt 0.500000 1.150277
vt 0.478018 1.150277
vt 2.508821 -0.868042
vt 2.508821 -0.911492
vt 2.553865 -0.911492
vt 2.553865 -0.868042
vt 2.553865 -0.824593
vt 2.508821 -0.824593
vt -0.331875 -1.735299
vt 0.518950 -0.856175
vt -0.331875 0.022949
vt -0.360173 0.022949
vt -0.388471 0.022949
vt 2.426483 -0.868043
vt 2.471526 -0.868043
vt 2.508821 -1.777469
vt 2.553865 -1.777469
vt 2.553865 0.041385
vt 2.508821 0.041385
vt 1.487868 -1.707107
vt 1.445339 -1.707107
vt 1.444419 -1.771047
vt 1.487868 -1.777469
vt 1.530398 -1.707107
vt 1.531318 -1.771047
vt 2.338682 -0.856174
vt 2.397295 -0.856174
vt 1.530398 -0.005242
vt 1.531318 0.058698
vt 2.591160 -0.075841
vt 2.591160 -0.884126
vt 2.596373 -0.884126
vt 2.596373 -0.075841
vt 2.591160 -0.926655
vt 2.596373 -0.926655
vt 2.591160 -0.969184
vt 2.596373 -0.969184
vt 2.591160 -1.777469
vt 2.596373 -1.777469
vt 2.632967 -1.777469
vt 2.632967 -0.969185
vt 2.627755 -0.969185
vt 2.627755 -1.777469
vt 2.632967 -0.926655
vt 2.627755 -0.926655
vt 2.632967 -0.884126
vt 2.627755 -0.884126
vt 2.632967 -0.075842
vt 2.627755 -0.075842
vt 1.487868 -0.005242
vt 1.487868 0.065120
vt 1.444419 0.058698
vt 1.445339 -0.005242
vt -0.360173 0.065120
vt -0.403623 0.058698
vt -1.269600 -0.856175
vt -0.360173 -1.777469
vt -0.316724 -1.771048
vt -0.403623 -1.771048
vt -0.316724 0.058698
vt 0.549254 -0.856175
vt 0.637055 -0.856174
vt 0.578441 -0.856174
vn -0.004604 0.000000 0.999989
vn -0.004604 0.000000 0.999989
vn -0.004604 0.000000 0.999989
vn -0.004604 0.000000 0.999989
vn 0.000000 1.000000 0.000000
vn 0.000000 1.000000 0.000000
vn 0.000000 1.000000 0.000000
vn 0.000000 1.000000 0.000000
vn 0.005526 0.000000 -0.999985
vn 0.005526 0.000000 -0.999985
vn 0.005526 0.000000 -0.999985
vn 0.005526 0.000000 -0.999985
vn 0.999991 0.000000 0.004242
vn 0.999991 0.000000 0.004242
vn 0.999991 0.000000 0.004242
vn 0.999991 0.000000 0.004242
vn -0.999984 0.000000 -0.005630
vn -0.999984 0.000000 -0.005630
vn -0.999984 0.000000 -0.005630
vn -0.999984 0.000000 -0.005630
vn 0.000000 0.000000 1.000000
vn 0.000000 0.000000 1.000000
vn 0.000000 0.000000 1.000000
vn 0.000000 0.000000 1.000000
vn 0.000000 0.000000 -1.000000
vn 0.000000 0.000000 -1.000000
vn 0.000000 0.000000 -1.000000
vn 0.000000 0.000000 -1.000000
vn 0.726248 -0.687433 0.000000
vn 0.726248 -0.687433 0.000000
vn 0.726248 -0.687433 0.000000
vn 0.726248 -0.687433 0.000000
vn -0.726248 -0.687433 0.000000
vn -0.726248 -0.687433 0.000000
vn -0.726248 -0.687433 0.000000
vn -0.726248 -0.687433 0.000000
vn 0.000000 0.000000 1.000000
vn 0.000000 0.000000 1.000000
vn 0.000000 0.000000 1.000000
vn 0.000000 0.000000 1.000000
vn 0.000000 0.000000 1.000000
vn 0.000000 0.000000 1.000000
vn 0.000000 0.000000 1.000000
vn 0.000000 0.000000 1.000000
vn 0.000000 0.000000 1.000000
vn 0.000000 0.000000 1.000000
vn 0.000000 0.000000 1.000000
vn 0.000000 0.000000 1.000000
vn 0.146210 0.989254 0.000000
vn 0.146210 0.989254 0.000000
vn 0.146210 0.989254 0.000000
vn 0.146210 0.989254 0.000000
vn -0.146210 0.989254 0.000000
vn -0.146210 0.989254 0.000000
vn -0.146210 0.989254 0.000000
vn -0.146210 0.989254 0.000000
vn 0.000000 0.000000 -1.000000
vn 0.000000 0.000000 -1.000000
vn 0.000000 0.000000 -1.000000
vn 0.000000 0.000000 -1.000000
vn 0.000000 0.000000 -1.000000
vn 0.000000 0.000000 -1.000000
vn 0.000000 0.000000 -1.000000
vn 0.000000 0.000000 -1.000000
vn 0.000000 0.000000 -1.000000
vn 0.000000 0.000000 -1.000000
vn 0.000000 0.000000 -1.000000
vn 0.000000 0.000000 -1.000000
vn 0.146210 -0.989254 0.000000
vn 0.146210 -0.989254 0.000000
vn 0.146210 -0.989254 0.000000
vn 0.146210 -0.989254 0.000000
vn -0.146210 -0.989254 0.000000
vn -0.146210 -0.989254 0.000000
vn -0.146210 -0.989254 0.000000
vn -0.146210 -0.989254 0.000000
vn 0.726248 0.687433 0.000000
vn 0.726248 0.687433 0.000000
vn 0.726248 0.687433 0.000000
vn 0.726248 0.687433 0.000000
vn -0.726248 0.687433 0.000000
vn -0.726248 0.687433 0.000000
vn -0.726248 0.687433 0.000000
vn -0.726248 0.687433 0.000000
vn 0.000000 0.000000 1.000000
vn 0.000000 0.000000 1.000000
vn 0.000000 0.000000 1.000000
vn 0.000000 0.000000 1.000000
vn 0.000000 0.000000 1.000000
vn 0.000000 0.000000 1.000000
vn 0.000000 0.000000 1.000000
vn 0.000000 0.000000 1.000000
vn 0.000000 0.000000 1.000000
vn 0.000000 0.000000 1.000000
vn 0.000000 0.000000 1.000000
vn 0.000000 0.000000 1.000000
vn 0.000000 0.000000 1.000000
vn 0.000000 0.000000 1.000000
vn 0.000000 0.000000 1.000000
vn 0.000000 0.000000 1.000000
vn 0.725043 0.688704 0.000000
vn 0.725043 0.688704 0.000000
vn 0.725043 0.688704 0.000000
vn 0.725043 0.688704 0.000000
vn 0.000000 1.000000 0.000000
vn 0.000000 1.000000 0.000000
vn 0.000000 1.000000 0.000000
vn 0.000000 1.000000 0.000000
vn 0.000000 1.000000 0.000000
vn 0.000000 1.000000 0.000000
vn 0.000000 1.000000 0.000000
vn 0.000000 1.000000 0.000000
vn -0.725043 0.688704 0.000000
vn -0.725043 0.688704 0.000000
vn -0.725043 0.688704 0.000000
vn -0.725043 0.688704 0.000000
vn -0.725043 -0.688704 0.000000
vn -0.725043 -0.688704 0.000000
vn -0.725043 -0.688704 0.000000
vn -0.725043 -0.688704 0.000000
vn 0.000000 -1.000000 0.000000
vn 0.000000 -1.000000 0.000000
vn 0.000000 -1.000000 0.000000
vn 0.000000 -1.000000 0.000000
vn 0.000000 -1.000000 0.000000
vn 0.000000 -1.000000 0.000000
vn 0.000000 -1.000000 0.000000
vn 0.000000 -1.000000 0.000000
vn 0.725043 -0.688704 0.000000
vn 0.725043 -0.688704 0.000000
vn 0.725043 -0.688704 0.000000
vn 0.725043 -0.688704 0.000000
vn 0.000000 0.000000 1.000000
vn 0.000000 0.000000 1.000000
vn 0.000000 0.000000 1.000000
vn 0.000000 0.000000 1.000000
vn 0.000000 0.000000 -1.000000
vn 0.000000 0.000000 -1.000000
vn 0.000000 0.000000 -1.000000
vn 0.000000 0.000000 -1.000000
vn 0.000000 0.000000 -1.000000
vn 0.000000 0.000000 -1.000000
vn 0.000000 0.000000 -1.000000
vn 0.000000 0.000000 -1.000000
vn 0.000000 0.000000 1.000000
vn 0.000000 0.000000 1.000000
vn 0.000000 0.000000 1.000000
vn 0.000000 0.000000 1.000000
vn 0.000000 0.000000 -1.000000
vn 0.000000 0.000000 -1.000000
vn 0.000000 0.000000 -1.000000
vn 0.000000 0.000000 -1.000000
vn 0.000000 0.000000 -1.000000
vn 0.000000 0.000000 -1.000000
vn 0.000000 0.000000 -1.000000
vn 0.000000 0.000000 -1.000000
vn 0.000000 0.000000 -1.000000
vn 0.000000 0.000000 -1.000000
vn 0.000000 0.000000 -1.000000
vn 0.000000 0.000000 -1.000000
vn 0.000000 0.000000 -1.000000
vn 0.000000 0.000000 -1.000000
vn 0.000000 0.000000 -1.000000
vn 0.000000 0.000000 -1.000000
vn 0.000000 0.000000 -1.000000
vn 0.000000 0.000000 -1.000000
vn 0.000000 0.000000 -1.000000
vn 0.000000 0.000000 -1.000000
vn 0.000000 0.000000 1.000000
vn 0.000000 0.000000 1.000000
vn 0.000000 0.000000 1.000000
vn 0.000000 0.000000 1.000000
vn 0.000000 0.000000 1.000000
vn 0.000000 0.000000 1.000000
vn 0.000000 0.000000 1.000000
vn 0.000000 0.000000 1.000000
vn 0.000000 0.000000 -1.000000
vn 0.000000 0.000000 -1.000000
vn 0.000000 0.000000 -1.000000
vn 0.000000 0.000000 -1.000000
s off
g polySurface2
usemtl lambert3SG
f 1/1/1 2/2/2 4/3/3 3/4/4
f 3/5/5 4/6/6 6/7/7 5/8/8
f 5/9/9 6/10/10 8/11/11 7/12/12
f 2/13/13 8/14/14 6/15/15 4/16/16
f 7/17/17 1/18/18 3/19/19 5/20/20
usemtl lambert2SG
f 27/21/21 26/22/22 28/23/23 29/24/24
f 17/25/25 9/26/26 13/27/27 14/28/28
f 40/29/29 39/30/30 46/31/31 49/32/32
f 41/33/33 37/34/34 48/35/35 50/36/36
f 28/23/37 30/37/38 31/38/39 29/24/40
f 31/38/41 32/39/42 33/40/43 29/24/44
f 33/40/45 34/41/46 27/21/47 29/24/48
f 36/42/49 42/43/50 43/44/51 44/45/52
f 36/42/53 44/45/54 45/46/55 35/47/56
f 13/27/57 10/48/58 15/49/59 14/28/60
f 15/49/61 12/50/62 16/51/63 14/28/64
f 16/51/65 11/52/66 17/25/67 14/28/68
f 38/53/69 46/31/70 39/30/71 47/54/72
f 38/53/73 47/54/74 48/35/75 37/34/76
f 40/55/77 49/56/78 43/44/79 42/43/80
f 41/57/81 50/58/82 35/47/83 45/46/84
f 20/59/85 18/60/86 48/61/87 47/62/88
f 21/63/89 20/59/90 47/62/91 39/64/92
f 22/65/93 21/63/94 39/64/95 40/66/96
f 23/67/97 22/65/98 40/66/99 42/68/100
f 19/69/101 18/70/102 26/71/103 27/72/104
f 18/70/105 20/73/106 28/74/107 26/71/108
f 20/73/109 21/75/110 30/76/111 28/74/112
f 21/75/113 22/77/114 31/78/115 30/76/116
f 22/79/117 23/80/118 32/81/119 31/82/120
f 23/80/121 24/83/122 33/84/123 32/81/124
f 24/83/125 25/85/126 34/86/127 33/84/128
f 25/85/129 19/87/130 27/88/131 34/86/132
f 24/89/133 36/90/134 35/91/135 25/92/136
f 11/52/137 16/51/138 38/93/139 37/94/140
f 17/25/141 11/52/142 37/94/143 41/95/144
f 23/67/145 42/68/146 36/90/147 24/89/148
f 10/48/149 13/27/150 44/96/151 43/97/152
f 13/27/153 9/26/154 45/98/155 44/96/156
f 16/51/157 12/50/158 46/99/159 38/93/160
f 12/50/161 15/49/162 49/100/163 46/99/164
f 15/49/165 10/48/166 43/97/167 49/100/168
f 19/101/169 50/102/170 48/61/171 18/60/172
f 25/92/173 35/91/174 50/102/175 19/101/176
f 9/26/177 17/25/178 41/95/179 45/98/180
